<svg id="Capa_1" enable-background="new 0 0 512 512" height="512" viewBox="0 0 512 512" width="512" xmlns="http://www.w3.org/2000/svg"><g><g><path d="m477.56 371.676c15.024-31.744 23.44-67.225 23.44-104.676 0-135.31-109.69-245-245-245s-245 109.69-245 245c0 37.451 8.416 72.932 23.44 104.676z" fill="#b1e4f9"/></g><g><circle cx="256" cy="242" fill="#90d8f9" r="200"/></g><g><g><path d="m351.058 163.926s10.385-25.285 28.897-19.415-.448 60.664-36.573 64.116z" fill="#f9d0b4"/></g><g><path d="m160.942 163.926s-10.385-25.285-28.897-19.415.448 60.664 36.573 64.116z" fill="#f9d0b4"/></g><g><path d="m436.277 432.882c16.661-18.1 30.637-38.71 41.284-61.206-26.949-42.886-92.452-72.931-221.56-72.931s-194.612 30.045-221.561 72.931c10.647 22.496 24.623 43.107 41.284 61.206z" fill="#d82e3d"/></g><g><path d="m256 254c-60.038 0-162.572 87.71-180.284 178.882 37.088 40.287 87.507 68.098 144.257 76.465l36.027-9.921 36.761 9.813c56.45-8.499 106.594-36.243 143.522-76.357-17.711-91.173-120.245-178.882-180.283-178.882z" fill="#df6b57"/></g><g><path d="m142.281 316.794c-31.951 32.373-58.36 73.856-66.564 116.088 37.088 40.287 87.507 68.098 144.257 76.465l36.026-9.921 36.761 9.813c56.45-8.499 106.594-36.243 143.522-76.357-242.015 60.977-286.438-57.55-294.002-116.088z" fill="#dd544f"/></g><g><path d="m297.603 254h-83.177s1.744 17.188 5.56 24.455c3.79 7.22 4.153 15.884.276 23.058-3.741 6.922-5.865 14.846-5.865 23.267s2.124 16.345 5.865 23.267c3.778 6.991 3.778 15.548 0 22.539-3.741 6.922-5.865 14.847-5.865 23.267 0 8.421 2.124 16.345 5.865 23.267 3.778 6.991 3.778 15.548 0 22.539-3.741 6.922-5.865 14.846-5.865 23.267s2.124 16.345 5.865 23.267c3.778 6.991 3.778 15.548 0 22.539-.11.203-.205.416-.312.621 11.767 1.736 23.801 2.647 36.05 2.647 12.508 0 24.795-.943 36.799-2.751-.251-.61-.512-1.185-.785-1.704-3.79-7.22-4.153-15.884-.276-23.058 3.741-6.922 5.865-14.846 5.865-23.267s-2.124-16.345-5.865-23.267c-3.778-6.991-3.778-15.548 0-22.539 3.741-6.922 5.865-14.847 5.865-23.267 0-8.421-2.124-16.345-5.865-23.267-3.778-6.991-3.778-15.548 0-22.539 3.741-6.922 5.865-14.847 5.865-23.267 0-8.421-2.124-16.345-5.865-23.267-3.778-6.991-3.778-15.548 0-22.539 3.741-6.923 5.865-14.847 5.865-23.268z" fill="#f5ebcd"/></g><g><path d="m220.262 508.733c-.11.203-.205.416-.312.621 11.767 1.735 23.801 2.646 36.05 2.646 12.508 0 24.795-.943 36.799-2.751-.251-.61-.512-1.185-.785-1.704-3.79-7.22-4.153-15.884-.276-23.058 3.741-6.922 5.865-14.846 5.865-23.267 0-4.14-.519-8.158-1.485-11.998-29.744-1.934-53.813-8.24-73.293-17.312-.399 2.685-1.246 5.313-2.562 7.749-3.741 6.922-5.865 14.846-5.865 23.267s2.124 16.345 5.865 23.267c3.777 6.992 3.777 15.549-.001 22.54z" fill="#eadbb7"/></g><g><path d="m409.426 265.197c0-9.105-3.769-17.328-9.831-23.197-5.647-5.467-8.598-13.249-7.911-21.079.082-.94.125-1.891.125-2.852 0-12.435-7.027-23.23-17.327-28.629-9.097-4.769-14.976-13.999-14.976-24.27v-49.506h-207.01v49.506c0 10.271-5.878 19.501-14.976 24.27-10.3 5.399-17.327 16.193-17.327 28.629 0 .961.042 1.913.125 2.852.687 7.829-2.265 15.612-7.911 21.078-6.062 5.869-9.831 14.092-9.831 23.197 0 9.131 3.791 17.375 9.883 23.248 4.66 4.493 7.296 10.644 7.862 17.093.009.105.019.211.029.317 1.472 15.108 13.56 27.301 28.655 28.898 1.04.11 2.07.17 3.09.183 8.403.103 16.144 4.444 21.202 11.155 18.889 25.064 48.902 41.269 82.704 41.269 33.806 0 63.822-16.209 82.711-41.277 5.054-6.708 12.792-11.045 21.19-11.146 1.019-.012 2.048-.072 3.087-.182 15.097-1.594 27.189-13.786 28.663-28.895.387-3.962.05-7.792-.884-11.381 11.018-5.145 18.658-16.318 18.658-29.281z" fill="#fff"/></g><g><path d="m221.869 205.876v-90.212h-69.374v49.506c0 10.271-5.878 19.501-14.976 24.27-10.3 5.399-17.327 16.193-17.327 28.629 0 .961.042 1.913.125 2.852.687 7.829-2.265 15.612-7.911 21.078-6.062 5.869-9.831 14.092-9.831 23.197 0 9.131 3.791 17.375 9.883 23.248 4.66 4.493 7.296 10.644 7.862 17.093.009.105.019.211.029.317 1.472 15.108 13.56 27.301 28.655 28.898 1.04.11 2.07.17 3.09.183 8.403.103 16.144 4.444 21.202 11.155 18.889 25.064 48.902 41.269 82.704 41.269 13.884 0 27.126-2.739 39.223-7.697-48.734-.35-65.709-33.02-49.223-52.321 16.574-19.404 2.319-50.042-23.553-62.298-25.873-12.256-21.617-51.064-.578-59.167z" fill="#faf5dc"/></g><g><path d="m256 197.604c12.108 0 23.642 2.905 34.131 8.273 24.295 12.432 53.212-4.545 53.459-31.835.004-.484.007-.968.007-1.452 0-64.505-39.219-110.885-87.597-110.885s-87.597 46.38-87.597 110.885c0 .483.002.967.007 1.452.247 27.29 29.164 44.267 53.459 31.835 10.489-5.368 22.023-8.273 34.131-8.273z" fill="#f9d0b4"/></g><g><path d="m256 217.011c-5.523 0-10-4.477-10-10v-30c0-5.523 4.477-10 10-10 5.523 0 10 4.477 10 10v30c0 5.522-4.477 10-10 10z" fill="#f9ba8f"/></g><g><g><circle cx="212.447" cy="165.191" fill="#365e7d" r="10"/></g><g><circle cx="212.447" cy="157.894" fill="#fff" r="5"/></g><g><circle cx="299.553" cy="165.191" fill="#365e7d" r="10"/></g><g><circle cx="299.553" cy="157.894" fill="#fff" r="5"/></g></g><g><path d="m462.004 63.578c0-2.315-.793-4.444-2.121-6.131-2.189-2.78-3.153-6.301-2.638-9.802.314-2.134-.062-4.385-1.225-6.398-1.157-2.004-2.908-3.452-4.902-4.249-3.296-1.317-5.88-3.902-7.197-7.197-.797-1.994-2.244-3.745-4.249-4.902-2.013-1.162-4.264-1.539-6.398-1.225-3.501.515-7.022-.449-9.802-2.638-1.687-1.329-3.817-2.121-6.131-2.121s-4.444.793-6.131 2.121c-2.78 2.189-6.301 3.153-9.802 2.638-2.134-.314-4.385.062-6.398 1.225-2.004 1.157-3.452 2.908-4.249 4.902-1.317 3.295-3.902 5.88-7.197 7.197-1.994.797-3.745 2.244-4.902 4.249-1.162 2.013-1.539 4.264-1.225 6.398.515 3.501-.449 7.022-2.638 9.802-1.329 1.687-2.121 3.817-2.121 6.131s.793 4.444 2.121 6.131c2.189 2.78 3.153 6.301 2.638 9.802-.314 2.134.062 4.385 1.225 6.398 1.157 2.004 2.908 3.452 4.902 4.249 3.296 1.317 5.88 3.902 7.197 7.197.797 1.994 2.244 3.745 4.249 4.902 2.013 1.162 4.264 1.539 6.398 1.225 3.501-.515 7.022.449 9.802 2.638 1.687 1.329 3.817 2.121 6.131 2.121s4.444-.793 6.131-2.121c2.78-2.189 6.301-3.153 9.802-2.638 2.134.314 4.385-.062 6.398-1.225 2.004-1.157 3.452-2.908 4.249-4.902 1.317-3.296 3.902-5.88 7.197-7.197 1.994-.797 3.745-2.244 4.902-4.249 1.162-2.013 1.539-4.264 1.225-6.398-.515-3.501.449-7.022 2.638-9.802 1.328-1.687 2.121-3.816 2.121-6.131z" fill="#faf5dc"/></g><g><path d="m435.423 97.356c-1.317-3.295-3.902-5.88-7.197-7.197-1.994-.797-3.745-2.245-4.902-4.249-1.162-2.013-1.539-4.264-1.225-6.398.515-3.501-.449-7.022-2.638-9.802-1.329-1.688-2.121-3.817-2.121-6.131 0-2.315.793-4.444 2.121-6.131 2.189-2.78 3.153-6.301 2.638-9.802-.314-2.134.062-4.385 1.225-6.398 1.157-2.004 2.908-3.452 4.902-4.249 3.296-1.317 5.88-3.902 7.197-7.197.797-1.994 2.244-3.745 4.249-4.902-2.013-1.162-4.264-1.539-6.398-1.225-3.501.515-7.022-.449-9.802-2.638-1.687-1.329-3.817-2.121-6.131-2.121-2.315 0-4.444.793-6.131 2.121-2.78 2.189-6.301 3.153-9.802 2.638-2.134-.314-4.385.062-6.398 1.225-2.004 1.157-3.452 2.908-4.249 4.902-1.317 3.295-3.902 5.88-7.197 7.197-1.994.797-3.745 2.245-4.902 4.249-1.162 2.013-1.539 4.264-1.225 6.398.515 3.501-.449 7.022-2.638 9.802-1.329 1.687-2.121 3.817-2.121 6.131 0 2.315.793 4.444 2.121 6.131 2.189 2.78 3.153 6.301 2.638 9.802-.314 2.134.062 4.385 1.225 6.398 1.157 2.004 2.908 3.452 4.902 4.249 3.295 1.317 5.88 3.902 7.197 7.197.797 1.994 2.245 3.745 4.249 4.902 2.013 1.162 4.264 1.539 6.398 1.225 3.501-.515 7.022.449 9.802 2.638 1.687 1.329 3.817 2.121 6.131 2.121s4.444-.793 6.131-2.121c2.78-2.189 6.301-3.153 9.802-2.638 2.134.314 4.385-.062 6.398-1.225-2.004-1.157-3.452-2.908-4.249-4.902z" fill="#f5ebcd"/></g><g><path d="m256 0v63.578 63.578c73.766 0 161.34-46.71 161.34-63.578s-87.574-63.578-161.34-63.578z" fill="#d82e3d"/></g><g><path d="m256 0c-61.39 0-111.156 49.766-111.156 111.156v12.483h222.312v-12.483c0-61.39-49.766-111.156-111.156-111.156z" fill="#df6b57"/></g><g><path d="m276 93.638c-30.988 0-95.255-59.915-60-86.216-41.624 16.061-71.156 56.446-71.156 103.734v12.483h131.156z" fill="#dd544f"/></g><g><g><path d="m356 153.638c-11.046 0-20-8.954-20-20l-20-10 20-10c0-11.046 8.954-20 20-20 11.046 0 20 8.954 20 20v20c0 11.046-8.954 20-20 20z" fill="#fff"/></g><g><path d="m356 133.638v-20c0-7.398 4.028-13.843 10-17.302-2.944-1.706-6.353-2.698-10-2.698-11.046 0-20 8.954-20 20l-20 10 20 10c0 11.046 8.954 20 20 20 3.647 0 7.056-.992 10-2.697-5.972-3.46-10-9.904-10-17.303z" fill="#faf5dc"/></g><g><path d="m196 153.638c-11.046 0-20-8.954-20-20l-20-10 20-10c0-11.046 8.954-20 20-20 11.046 0 20 8.954 20 20l20 10-20 10c0 11.046-8.954 20-20 20z" fill="#fff"/></g><g><path d="m196 133.638v-20c0-7.398 4.028-13.843 10-17.302-2.944-1.706-6.353-2.698-10-2.698-11.046 0-20 8.954-20 20l-20 10 20 10c0 11.046 8.954 20 20 20 3.647 0 7.056-.992 10-2.697-5.972-3.46-10-9.904-10-17.303z" fill="#faf5dc"/></g><g><path d="m276 153.638c-11.046 0-20-8.954-20-20l-20-10 20-10c0-11.046 8.954-20 20-20 11.046 0 20 8.954 20 20l20 10-20 10c0 11.046-8.954 20-20 20z" fill="#fff"/></g><g><path d="m276 133.638v-20c0-7.398 4.028-13.843 10-17.302-2.944-1.706-6.353-2.698-10-2.698-11.046 0-20 8.954-20 20l-20 10 20 10c0 11.046 8.954 20 20 20 3.647 0 7.056-.992 10-2.697-5.972-3.46-10-9.904-10-17.303z" fill="#faf5dc"/></g><g><path d="m236 153.638c-11.046 0-20-8.954-20-20v-20c0-11.046 8.954-20 20-20 11.046 0 20 8.954 20 20v20c0 11.046-8.954 20-20 20z" fill="#fff"/></g><g><path d="m236 133.638v-20c0-7.398 4.028-13.843 10-17.302-2.944-1.706-6.353-2.698-10-2.698-11.046 0-20 8.954-20 20v20c0 11.046 8.954 20 20 20 3.647 0 7.056-.992 10-2.697-5.972-3.46-10-9.904-10-17.303z" fill="#faf5dc"/></g><g><path d="m156 153.638c-11.046 0-20-8.954-20-20v-20c0-11.046 8.954-20 20-20 11.046 0 20 8.954 20 20v20c0 11.046-8.954 20-20 20z" fill="#fff"/></g><g><path d="m156 133.638v-20c0-7.398 4.028-13.843 10-17.302-2.944-1.706-6.353-2.698-10-2.698-11.046 0-20 8.954-20 20v20c0 11.046 8.954 20 20 20 3.647 0 7.056-.992 10-2.697-5.972-3.46-10-9.904-10-17.303z" fill="#faf5dc"/></g><g><path d="m316 153.638c-11.046 0-20-8.954-20-20v-20c0-11.046 8.954-20 20-20 11.046 0 20 8.954 20 20v20c0 11.046-8.954 20-20 20z" fill="#fff"/></g><g><path d="m316 133.638v-20c0-7.398 4.028-13.843 10-17.302-2.944-1.706-6.353-2.698-10-2.698-11.046 0-20 8.954-20 20v20c0 11.046 8.954 20 20 20 3.647 0 7.056-.992 10-2.697-5.972-3.46-10-9.904-10-17.303z" fill="#faf5dc"/></g></g></g></g></svg>