<svg id="Layer_1" enable-background="new 0 0 512 512" height="512" viewBox="0 0 512 512" width="512" xmlns="http://www.w3.org/2000/svg"><g><path d="m256 21.998c-135.31 0-245.001 109.691-245.001 245.001 0 70.063 29.415 133.251 76.562 177.905.003.002 84.19 56.158 177.689 56.158 93.462 0 158.457-55.481 158.51-55.526 47.541-44.689 77.241-108.14 77.241-178.537 0-135.31-109.691-245.001-245.001-245.001z" fill="#63af7d"/><g><g><path d="m171.274 246.049c2.528 4.883 7.065 7.606 10.641 9.061 2.701 1.101 4.286 3.877 3.856 6.752-2.755 18.415 8.61 24.653 15.629 26.732 2.277.674 3.961 2.539 4.396 4.868.638 3.414 4.038 14.557 20.975 14.557 3.53 0 6.622 1.122 7.258 1.272v89.658c0 23.847-21.464 41.984-45.057 38.037-23.425-3.913-45.179-9.87-64.687-17.693v-1.693c17.3-22.677 19.185-49.241 19.185-49.241-2.912-13.345-6.859-21.992-3.824-26.055 1.479-1.98 2.041-4.487 1.526-6.903l-.089-.417c-2.109-9.879-2.459-20.078-.778-30.04 5.275-31.253 22.484-50.878 30.969-58.895z" fill="#e80054"/></g></g><g><g><path d="m339.937 246.049c-2.528 4.883-7.065 7.606-10.641 9.061-2.701 1.101-4.286 3.877-3.856 6.752 2.755 18.415-8.61 24.653-15.629 26.732-2.277.674-3.961 2.539-4.397 4.868-.638 3.414-4.038 14.557-20.975 14.557-3.529 0-6.622 1.122-7.258 1.272v89.658c0 23.847 21.464 41.984 45.057 38.037 23.425-3.913 45.179-9.87 64.687-17.693v-1.693c-17.3-22.677-19.185-49.241-19.185-49.241 2.912-13.345 6.859-21.992 3.824-26.055-1.479-1.98-2.041-4.487-1.525-6.903l.089-.417c2.109-9.879 2.459-20.078.778-30.04-5.275-31.253-22.484-50.878-30.969-58.895z" fill="#ff4155"/></g></g><path d="m375.699 342.525c-.54-4.171-4.694-6.813-8.686-5.492-27.361 9.051-67.128 14.75-111.407 14.75-1.182 0-2.359-.006-3.534-.014v35.258c1.175.008 2.353.014 3.534.014 42.633 0 81.094-5.282 108.32-13.752 6.102-1.899 10.53-7.144 11.528-13.455.494-3.123.749-6.297.749-9.513-.001-2.629-.172-5.229-.504-7.796z" fill="#876d93"/><path d="m220.29 350.538c-29.881-2.143-56.25-6.942-76.092-13.505-3.993-1.321-8.146 1.322-8.686 5.492-.333 2.567-.503 5.167-.503 7.795 0 3.216.254 6.39.749 9.513.999 6.312 5.427 11.557 11.528 13.455 19.456 6.053 44.651 10.477 73.005 12.509v-35.259z" fill="#543e5b"/><g><path d="m394.957 322.21-38.436-27.672c2.971-4.126 5.779-9.474 4.749-12.103-2.881-7.353-22.575-16.595-37.595-19.638l9.406-46.417c1.403.285 14.127 2.959 28.498 9.184 22.597 9.791 37.329 23.111 43.787 39.592 4.931 12.583 7.127 32.696-10.409 57.054z" fill="#ff4155"/></g><g><ellipse cx="367.419" cy="309.236" fill="#e9efff" rx="32.231" ry="32.231" transform="matrix(.707 -.707 .707 .707 -111.048 350.378)"/></g><path d="m367.419 277.005c-17.801 0-32.232 14.431-32.232 32.231 0 7.053 2.272 13.573 6.116 18.88 1.009-1.267 1.761-2.709 2.143-4.398 2.177-9.617 11.164-11.66 17.492-11.86 3.434-.108 6.427-2.452 7.184-5.803 4.118-18.222 24.785-16.535 24.785-16.535-5.894-7.611-15.116-12.515-25.488-12.515z" fill="#d3dcfb"/><g><path d="m116.253 322.21c-17.536-24.358-15.339-44.47-10.409-57.054 6.458-16.482 21.19-29.802 43.787-39.592 14.37-6.225 27.094-8.9 28.498-9.184l9.406 46.417-4.703-23.208 4.766 23.195c-15.421 3.215-34.804 12.307-37.663 19.663-.855 2.199.967 6.833 4.753 12.092z" fill="#e80054"/></g><g><ellipse cx="143.791" cy="309.236" fill="#e9efff" rx="32.231" ry="32.231" transform="matrix(.23 -.973 .973 .23 -190.209 378.133)"/></g><path d="m170.475 327.317c-12.201-1.731-18.294-9.013-21.034-13.792-1.465-2.555-4.082-4.228-7.008-4.572-15.544-1.828-19.153-12.119-19.858-18.608-.159-1.463-.685-2.82-1.466-4.006-5.896 5.841-9.55 13.941-9.55 22.896 0 17.801 14.43 32.231 32.231 32.231 11.1.001 20.888-5.61 26.685-14.149z" fill="#d3dcfb"/><g><g><path d="m171.549 115.193c.832-.148 1.659-.223 2.482-.265 1.412 2.936 3.206 5.716 5.396 8.249 1.902 2.2 4.02 4.306 6.317 6.319-.272 1.21-.576 2.451-.909 3.755-1.187 1.566-2.021 3.372-2.441 5.292-1.14 5.208-2.386 10.263-3.956 15.643-10.739 1.884-17.137-6.076-19.048-16.827-1.915-10.766 1.393-20.251 12.159-22.166z" fill="#fcad6d"/></g><g><path d="m168.794 128.684c-2.468-6.75-8.394-4.673-8.553-4.616-1.499 3.774-1.723 8.395-.853 13.29 1.911 10.751 8.309 18.711 19.048 16.827.641-2.195 1.217-4.33 1.764-6.449-3.203-4.587-9.559-14.002-11.406-19.052z" fill="#f9ba8f"/></g><g><path d="m178.357 121.85c.35.446.697.895 1.07 1.327 1.902 2.2 4.02 4.306 6.317 6.319-.272 1.21-.576 2.451-.909 3.755-1.187 1.566-2.021 3.372-2.441 5.292-.795 3.633-1.649 7.196-2.622 10.842-.249.018-.497.043-.75.043-6.677 0-9.612-6.269-10.879-13.789-1.316-7.809 3.848-13.392 10.214-13.789z" fill="#fd995b"/></g><g><path d="m339.703 115.193c-.832-.148-1.659-.223-2.482-.265-1.412 2.936-3.206 5.716-5.396 8.249-1.902 2.2-4.02 4.306-6.317 6.319.272 1.21.576 2.451.909 3.755 1.187 1.566 2.021 3.372 2.441 5.292 1.139 5.208 2.386 10.263 3.956 15.643 10.739 1.884 17.137-6.076 19.048-16.827 1.915-10.766-1.393-20.251-12.159-22.166z" fill="#ffcfae"/></g><g><path d="m346.847 118.314c-.346-.034-7.468-.644-6.795 6.724.69 7.55 2.581 13 2.581 13s-.268 6.566 7.644 5.12c.691-1.8 1.222-3.747 1.587-5.799 1.394-7.845-.002-14.994-5.017-19.045z" fill="#fcdbc5"/></g><g><path d="m332.895 121.85c-.35.446-.697.895-1.07 1.327-1.902 2.2-4.02 4.306-6.317 6.319.272 1.21.576 2.451.909 3.755 1.187 1.566 2.022 3.372 2.441 5.292.795 3.633 1.649 7.196 2.622 10.842.25.018.497.043.75.043 6.677 0 9.612-6.269 10.879-13.789 1.316-7.809-3.848-13.392-10.214-13.789z" fill="#fcad6d"/></g><g><path d="m255.605 41.528c25.654 0 48.801 5.493 65.223 15.32-6.367-14.995-19.479-46.426-35.315-50.95-22.479-6.422-29.908-5.887-29.908-5.887s-7.429-.535-29.908 5.887c-15.836 4.525-28.948 35.955-35.315 50.95 16.423-9.827 39.569-15.32 65.223-15.32z" fill="#ff4155"/></g><g><g><path d="m244.968 12.784c-4.331-3.993-1.588-8.65 1.554-11.833-4.693.801-11.444 2.267-20.824 4.947-15.836 4.525-28.948 35.955-35.315 50.95 15.233-9.115 36.254-14.493 59.692-15.226-.006-.003-.013-.005-.019-.007-8.772-4.385 8.462-16.338-5.088-28.831z" fill="#e80054"/></g></g><g><path d="m356.138 92.868c.549-1.767 1.334-3.394 2.303-4.865-9.591-3.549-17.514-8.786-24.031-14.86l4.469 11.549c2.643 6.832 3.214 14.146 1.864 21.088 6.04.872 11.589.868 16.16.525-1.803-4.094-2.197-8.83-.765-13.437z" fill="#e80054"/></g><g><path d="m335.485 71.773c-2.333-6.031-6.462-11.209-11.857-14.775-16.534-10.928-40.877-17.076-68.023-17.076s-51.488 6.148-68.023 17.076c-5.395 3.566-9.523 8.744-11.857 14.775l-4.999 12.92c-5.052 13.058-2.603 27.892 6.554 38.483 2.324 2.688 4.956 5.245 7.864 7.65.825-5.474 1.311-10.877 1.481-16.403.103-3.322 1.398-6.411 3.647-8.697 7.318-7.435 25.537-19.91 65.332-19.91s58.013 12.475 65.331 19.91c2.249 2.285 3.544 5.374 3.647 8.697.17 5.528.656 10.931 1.482 16.406 2.909-2.405 5.541-4.963 7.866-7.651 9.157-10.592 11.607-25.427 6.555-38.485z" fill="#e9efff"/></g><g><path d="m237.593 67.512c-10.254-15.787 9.81-27.008 10.523-27.413-24.109 1.027-45.538 6.988-60.534 16.9-5.395 3.566-9.524 8.744-11.857 14.775l-4.999 12.92c-5.052 13.058-2.603 27.892 6.554 38.483 2.324 2.688 4.956 5.245 7.864 7.65.825-5.474 1.311-10.877 1.481-16.404.103-3.322 1.398-6.411 3.647-8.697 7.318-7.435 25.537-19.91 65.332-19.91s58.013 12.475 65.331 19.91c2.249 2.285 3.544 5.374 3.647 8.697.17 5.528.656 10.931 1.482 16.406 2.909-2.405 5.541-4.963 7.865-7.651.684-.791 1.318-1.612 1.926-2.447-1.445-59.797-88.164-37.673-98.262-53.219z" fill="#d3dcfb"/></g><g><path d="m196.029 84.612c-8.969-8.968-4.796-23.546-1.326-31.758-2.502 1.296-4.89 2.671-7.12 4.145-5.395 3.566-9.524 8.744-11.857 14.775l-4.999 12.92c-5.052 13.058-2.603 27.892 6.554 38.483 2.324 2.688 4.956 5.245 7.864 7.65.825-5.474 1.311-10.877 1.481-16.404.103-3.322 1.398-6.411 3.647-8.697 2.711-2.755 6.924-6.201 13.171-9.448-1.175-3.642-3.407-7.658-7.415-11.666z" fill="#bec8f7"/></g><g><path d="m188.353 177.485c.178-.713 1.111-.811 1.485-.188 1.908 3.2 5.859 6.746 13.827 5.457 15.875-2.558 13.907-26.055 51.485-10.705l.455.186.456-.186c37.572-15.349 35.618 8.149 51.484 10.705 7.973 1.289 11.918-2.259 13.827-5.456.374-.626 1.307-.524 1.485.186.538 2.16.853 4.293.953 6.377 6.584-13.674 7.262-31.315 6.875-42.403-2.984-11.346-4.56-16.089-4.899-27.072-.11-3.558-1.495-6.967-3.992-9.504-7.2-7.316-25.67-20.27-66.19-20.27s-58.99 12.954-66.19 20.27c-2.497 2.537-3.882 5.946-3.992 9.504-.339 10.983-1.915 15.726-4.899 27.072-.387 11.087.291 28.729 6.875 42.403.102-2.084.417-4.218.955-6.376z" fill="#ffcfae"/></g><g><path d="m330.686 141.458c-2.984-11.346-4.56-16.089-4.899-27.072-.11-3.558-1.495-6.968-3.992-9.504-4.233-4.3-12.368-10.547-26.579-14.968-2.615 1.266-7.249 5.361 3.953 16.606 13.48 13.532-9.179 49.699 20.709 72.787.598-.654 1.094-1.337 1.495-2.008.374-.626 1.307-.524 1.485.186.376 1.509.636 3.004.797 4.48.257.166.519.331.783.495 5.984-13.462 6.622-30.287 6.248-41.002z" fill="#fcdbc5"/></g><g><path d="m245.293 168.635c-2.092-8.48-.263-16.406-6.221-19.814-11.026-6.308-.655-12.89-6.208-21.056s1.015-12.032 1.015-12.032l-.046-12.508c-6.071-6.071-4.29-12.47-1.479-16.988-24.709 3.705-37.292 12.908-42.939 18.645-2.497 2.537-3.882 5.947-3.992 9.504-.339 10.983-1.915 15.727-4.899 27.072-.387 11.087.291 28.729 6.875 42.403.1-2.084.415-4.218.953-6.376.178-.712 1.111-.811 1.485-.187 1.908 3.2 5.859 6.746 13.827 5.456 14.337-2.309 14.131-21.687 41.629-14.119z" fill="#f9ba8f"/></g><g><path d="m181.226 138.813c-.225.847-.457 1.717-.701 2.645-.387 11.087.291 28.729 6.875 42.403.1-2.084.415-4.218.953-6.376.178-.712 1.111-.811 1.485-.187 1.908 3.2 5.859 6.746 13.827 5.456 2.325-.375 4.264-1.203 6.005-2.287-20.323-6.711-26.559-27.922-28.444-41.654z" fill="#fcad6d"/></g><g><path d="m343.447 178.539c-6.605-16.564-9.828-27.858-12.484-39.996-.421-1.922-1.257-3.73-2.445-5.297.707 7.283 2.106 29.672-5.104 46.968 2.735 16.567-7.723 30.972-30.999 30.972-30.731 0-35.439-23.222-35.624-24.209l-.483-2.62c-.235-.178-.469-.357-.702-.532-.225.17-.452.343-.679.515-.846 4.552-2.072 9.191-6.594 14.688-6.637 8.067-16.574 12.158-29.536 12.158-23.317 0-33.728-14.437-30.999-30.972-7.21-17.296-5.811-39.685-5.104-46.968-1.189 1.568-2.025 3.376-2.445 5.297-2.656 12.138-5.879 23.432-12.484 39.996-9.656 24.213-2.008 37.681 1.824 42.434 1.057 1.312 1.345 3.086.735 4.657-7.911 20.353 4.454 28.279 10.997 30.943 2.011.819 3.212 2.908 2.89 5.056-3.029 20.246 10.503 26.631 16.742 28.479 1.694.502 2.968 1.907 3.293 3.644 1.261 6.745 6.969 15.845 22.527 15.845 6.779 0 14.434 4.342 20.152 8.443 5.178 3.713 12.186 3.713 17.363 0 5.718-4.101 13.373-8.443 20.152-8.443 15.558 0 21.266-9.1 22.527-15.845.325-1.737 1.598-3.142 3.293-3.644 6.239-1.848 19.772-8.232 16.742-28.479-.321-2.148.879-4.237 2.891-5.056 6.543-2.664 18.908-10.59 10.997-30.943-.61-1.57-.323-3.345.735-4.657 3.83-4.754 11.477-18.221 1.822-42.434z" fill="#d3dcfb"/></g><g><path d="m268.419 315.284c-31.846-13.72-15.34-27.66-12.814-43.07 2.631-16.05-24.32-19.207-19.705-37.362 3.665-14.417 28.801-13.419 28.801-13.419l-16.931-21.763c-6.631 7.634-16.367 11.515-28.973 11.515-23.317 0-33.728-14.437-30.999-30.972-7.21-17.296-5.811-39.684-5.104-46.968-1.189 1.567-2.025 3.376-2.445 5.297-2.656 12.138-5.879 23.432-12.484 39.996-9.656 24.213-2.008 37.681 1.824 42.434 1.057 1.311 1.345 3.086.735 4.656-7.911 20.353 4.454 28.279 10.997 30.943 2.011.819 3.212 2.908 2.89 5.056-3.029 20.246 10.503 26.631 16.742 28.478 1.694.502 2.968 1.907 3.292 3.644 1.261 6.745 6.969 15.845 22.527 15.845 6.779 0 14.434 4.342 20.152 8.442 5.178 3.713 12.186 3.713 17.363 0 1.288-.921 2.679-1.856 4.132-2.752z" fill="#bec8f7"/></g><g><path d="m256.79 186.976-.483-2.62c-.235-.178-.469-.357-.702-.532-.225.17-.452.343-.679.515-.846 4.552-2.072 9.191-6.594 14.688-5.481 6.662-13.219 10.604-23.045 11.778 9.727 10.365 19.894 16.131 30.36 16.131 10.465 0 20.632-5.766 30.359-16.13-24.98-2.961-29.044-22.916-29.216-23.83z" fill="#ffcfae"/></g><g><path d="m225.287 210.805c6.403 6.822 12.997 11.637 19.741 14.141 1.03-7.955 10.611-8.179 10.611-8.179l-17.723-9.542c-3.723 1.819-7.935 3.019-12.629 3.58z" fill="#fcad6d"/></g><g><path d="m255.639 216.767c6.826 0 13.437-5.638 19.715-8.612-15.554-6.322-18.42-20.415-18.563-21.179l-.483-2.62c-.235-.178-.469-.357-.702-.532-.225.17-.452.343-.679.515-.846 4.552-2.072 9.191-6.594 14.688-3.326 4.043-7.482 7.086-12.431 9.117 6.284 2.981 12.902 8.623 19.737 8.623z" fill="#ff7186"/></g><g><path d="m275.354 208.155c-15.554-6.322-18.42-20.415-18.563-21.179l-.483-2.62c-.235-.178-.469-.357-.702-.532-.225.17-.452.343-.679.515-.729 3.925-1.747 7.915-4.91 12.463 4.152 3.663 11.638 11.946 5.622 19.965 6.826 0 13.437-5.638 19.715-8.612z" fill="#ff4155"/></g><g><path d="m389.142 108.807c-5.652 8.981-17.515 11.679-26.496 6.027-8.981-5.653-11.679-17.515-6.027-26.496 5.653-8.981 17.515-11.679 26.496-6.027s11.68 17.515 6.027 26.496z" fill="#d3dcfb"/></g><g><path d="m387.411 92.551c-1.502 4.832-6.637 7.531-11.469 6.029s-7.531-6.637-6.029-11.469 6.637-7.531 11.469-6.029 7.531 6.637 6.029 11.469z" fill="#e9efff"/></g><g><path d="m324.026 177.194c-.437-1.751-2.763-2.062-3.687-.512-1.796 3.01-5.407 6.045-12.602 4.885-14.965-2.412-14.072-26.177-52.132-10.632-38.06-15.546-37.167 8.219-52.132 10.632-7.195 1.16-10.805-1.875-12.602-4.885-.924-1.549-3.25-1.238-3.687.512-3.796 15.235 3.084 35.196 31.611 35.196 32.163 0 36.809-25.195 36.809-25.195s4.646 25.195 36.809 25.195c28.528-.001 35.409-19.961 31.613-35.196z" fill="#e9efff"/></g><g><path d="m233.833 103.225c4.998 2.618 5.014 9.833.046 12.508-.074.04-.148.079-.224.119-6.175 3.227-22.487 2.851-33.036 5.129-2.143.463-3.732-1.947-2.479-3.746 5.955-8.548 19.007-22.751 35.693-14.01z" fill="#d3dcfb"/></g><g><path d="m277.378 103.225c-4.998 2.618-5.014 9.833-.046 12.508.074.04.148.079.223.119 6.175 3.227 22.487 2.851 33.036 5.129 2.142.463 3.732-1.947 2.479-3.746-5.954-8.548-19.006-22.751-35.692-14.01z" fill="#e9efff"/></g><g><g><path d="m296.345 136.638c-1.131-3.166-4.141-5.293-7.492-5.293s-6.361 2.127-7.49 5.292c-.828 2.317-3.374 3.52-5.687 2.697-2.316-.827-3.523-3.372-2.697-5.687 2.391-6.7 8.77-11.202 15.874-11.202 7.102 0 13.482 4.501 15.874 11.201 1.98 5.544-6.404 8.539-8.382 2.992z" fill="#6c5475"/></g></g><g><g><path d="m209.18 139.332c-2.314-.826-3.521-3.372-2.694-5.687 2.391-6.7 8.771-11.201 15.874-11.201 7.104 0 13.482 4.502 15.874 11.202.826 2.314-.381 4.86-2.697 5.687-2.311.823-4.86-.38-5.687-2.697-1.129-3.165-4.139-5.292-7.49-5.292s-6.361 2.127-7.492 5.293c-.834 2.334-3.399 3.518-5.688 2.695z" fill="#6c5475"/></g></g><g><path d="m285.513 5.898c-2.988-.854-5.703-1.582-8.177-2.207-.943 2.947-.625 6.894 3.854 11.373 9.165 9.165-3.669 22.444 29.464 19.539-6.737-13.023-15.425-25.929-25.141-28.705z" fill="#ff7186"/></g><g><path d="m290.668 169.755c-6.416-4.457-15.69-6.734-35.063 1.179-38.06-15.546-37.166 8.22-52.131 10.632-7.197 1.16-10.807-1.876-12.603-4.887-.924-1.548-3.251-1.229-3.687.52-3.793 15.234 3.089 35.19 31.613 35.19 21.75 0 30.916-11.521 34.572-18.982.914-1.865 3.551-1.899 4.464-.035 2.925 5.974 9.394 14.575 23.052 17.759 3.514-5.963 10.697-11.363 5.122-19.957-6.556-10.104.207-17.809 4.661-21.419z" fill="#d3dcfb"/></g><g><path d="m276.503 164.462c0 11.541-9.356 12.567-20.897 12.567s-20.897-1.025-20.897-12.567c0-11.541 9.356-28.51 20.897-28.51s20.897 16.969 20.897 28.51z" fill="#f9ba8f"/></g><g><path d="m317.236 243.272c-15.611 2.777-21.603 20.535-13.156 31.223 7.316 9.257-14.46 12.925-1.422 28.088 2.465-2.802 3.782-6.019 4.308-8.832.325-1.737 1.598-3.142 3.293-3.644 6.24-1.847 19.771-8.232 16.742-28.478-.321-2.148.879-4.237 2.891-5.056 6.544-2.664 18.908-10.59 10.997-30.943 0-.001-3.965 14.139-23.653 17.642z" fill="#e9efff"/></g><g><ellipse cx="262.261" cy="148.945" fill="#ffcfae" rx="10.261" ry="10.261" transform="matrix(.707 -.707 .707 .707 -28.506 229.072)"/></g><g><path d="m238.492 154.118c0-1.819.204-3.59.58-5.297-2.733 5.076-4.364 10.829-4.364 15.641 0 11.082 8.628 12.468 19.533 12.56-9.208-3.533-15.749-12.452-15.749-22.904z" fill="#fcad6d"/></g></g><g><path d="m194.518 297.859c.358 3.52-.716 9.012-10.031 11.082 0 0 27.417 10.333 22.205 25.007s-24.773 29.303-44.384 18.858c-10.46-5.571-18.52-11.893-23.766-16.581-2.723-2.433-3.474-6.389-1.864-9.667 2.057-4.191 6.024-12.119 13.804-27.719 1.492-2.991 4.337-5.076 7.638-5.597 10.231-1.616 25.888-3.448 32.383-.841 2.25.904 3.77 3.047 4.015 5.458z" fill="#ff7186"/></g><path d="m193.551 350.575c-5.256-10.591-2.21-22.878-17.528-22.878-15.961 0-23.455-8.718-26.581-14.172-1.003-1.749-2.553-3.071-4.365-3.85-4.334 8.687-6.886 13.802-8.399 16.884-1.609 3.278-.859 7.233 1.864 9.667 5.246 4.688 13.306 11.009 23.766 16.581 11.36 6.05 22.696 3.679 31.243-2.232z" fill="#ff4155"/><g><path d="m316.693 297.859c-.358 3.52.716 9.012 10.031 11.082 0 0-27.417 10.333-22.205 25.007s24.773 29.303 44.384 18.858c10.46-5.571 18.52-11.893 23.766-16.581 2.723-2.433 3.474-6.389 1.864-9.667-2.057-4.191-6.024-12.119-13.804-27.719-1.491-2.991-4.337-5.076-7.638-5.597-10.231-1.616-25.888-3.448-32.383-.841-2.25.904-3.77 3.047-4.015 5.458z" fill="#f9a0b1"/></g><path d="m319.416 351.717c-4.678-16.622 21.029-14.738 24.03-27.999 2.177-9.617 11.164-11.66 17.492-11.86 1.995-.063 3.826-.897 5.171-2.229-1.555-3.116-3.333-6.68-5.382-10.789-1.491-2.991-4.337-5.076-7.638-5.597-10.231-1.616-25.888-3.448-32.383-.841-2.249.903-3.769 3.046-4.014 5.457-.358 3.52.716 9.012 10.031 11.082 0 0-27.417 10.333-22.205 25.007 2.396 6.745 7.828 13.474 14.898 17.769z" fill="#ff7186"/><path d="m311.029 231.63h-132.21v195.619c24.267 8.049 50.212 12.419 77.181 12.419 25.669 0 50.412-3.956 73.663-11.277v-178.128c0-10.291-8.343-18.633-18.634-18.633z" fill="#f4dcbd"/><path d="m317.997 313.904c-3.832 0-6.967-3.135-6.967-6.967v-46.748c0-3.832 3.135-6.967 6.967-6.967h11.666v-2.957c0-10.291-8.342-18.634-18.634-18.634h-132.21v195.619c12.314 4.084 25.062 7.216 38.154 9.316v-80.857c0-10.043 8.217-18.26 18.26-18.26h94.43v-23.544h-11.666z" fill="#edc79d"/><g><path d="m190.546 313.003c-11.577-2.807-11.727-10.963-11.727-10.963l-1.744 6.062v44.003l1.744 4.092c17.555-2.547 27.864-16.269 30.145-25.917 2.28-9.647-6.841-14.47-18.418-17.277z" fill="#ff7186"/></g><path d="m193.61 350.69c-5.211-10.367-2.355-22.413-16.535-22.972v24.388l1.744 4.092c5.707-.829 10.642-2.842 14.791-5.508z" fill="#ff4155"/><g><path d="m320.665 313.003c11.577-2.807 11.727-10.963 11.727-10.963l1.744 6.062v44.003l-1.744 4.092c-17.555-2.547-27.864-16.269-30.145-25.917-2.28-9.647 6.841-14.47 18.418-17.277z" fill="#f9a0b1"/></g><path d="m319.44 351.802c-3.106-10.835 6.635-13.844 14.696-18.236v-25.464l-1.744-6.062s-.149 8.156-11.727 10.963c-11.577 2.806-20.698 7.63-18.418 17.278 1.646 6.963 7.476 16.047 17.193 21.521z" fill="#ff7186"/><g><path d="m160.185 231.63c-10.291 0-18.634 8.343-18.634 18.634v63.827c0 5.317 4.31 9.628 9.628 9.628h131.588c5.317 0 9.628-4.31 9.628-9.628v-45.193-18.634c0-10.291 8.343-18.634 18.634-18.634z" fill="#f8ebd8"/><path d="m216.972 250.037c0-15.411 20.228-18.407 20.228-18.407h-77.015c-10.291 0-18.634 8.343-18.634 18.634v63.827c0 5.317 4.31 9.628 9.628 9.628h73.821c-8.875-3.604-8.028-14.043-8.028-14.043s0-44.229 0-59.639z" fill="#f4dcbd"/></g><g><g><path d="m256.044 280.949c-3.166 0-4.897-.634-6.288-1.144-1.061-.389-1.763-.646-3.481-.646s-2.419.257-3.481.646c-1.391.51-3.122 1.144-6.287 1.144-3.166 0-4.896-.634-6.287-1.144-1.061-.389-1.762-.646-3.481-.646-1.718 0-2.419.257-3.48.646-1.391.51-3.121 1.144-6.287 1.144s-4.896-.634-6.287-1.144c-1.061-.389-1.763-.646-3.481-.646s-2.419.257-3.48.646c-1.391.51-3.121 1.144-6.287 1.144s-4.897-.634-6.288-1.144c-1.061-.389-1.762-.646-3.48-.646s-2.419.257-3.48.646c-1.391.51-3.122 1.144-6.287 1.144-3.166 0-4.896-.634-6.287-1.144-1.061-.389-1.762-.646-3.481-.646-2.253 0-4.079-1.826-4.079-4.078 0-2.253 1.826-4.079 4.079-4.079 3.166 0 4.896.634 6.287 1.144 1.061.389 1.763.646 3.481.646s2.419-.257 3.481-.646c1.391-.51 3.121-1.144 6.287-1.144s4.896.634 6.287 1.144c1.061.389 1.762.646 3.481.646 1.718 0 2.419-.257 3.48-.646 1.391-.51 3.121-1.144 6.287-1.144s4.896.634 6.287 1.144c1.061.389 1.763.646 3.481.646s2.419-.257 3.48-.646c1.391-.51 3.121-1.144 6.287-1.144s4.896.634 6.287 1.144c1.061.389 1.762.646 3.481.646 1.718 0 2.419-.257 3.481-.646 1.391-.51 3.121-1.144 6.287-1.144s4.897.634 6.288 1.144c1.062.389 1.763.646 3.481.646 1.719 0 2.42-.257 3.482-.646 1.391-.51 3.122-1.144 6.288-1.144 2.253 0 4.078 1.826 4.078 4.079s-1.826 4.078-4.078 4.078c-1.719 0-2.42.257-3.482.646-1.392.51-3.123 1.144-6.289 1.144z" fill="#edc79d"/></g></g><g><g><path d="m256.044 258.193c-3.166 0-4.897-.634-6.288-1.144-1.061-.389-1.763-.646-3.481-.646s-2.419.257-3.481.646c-1.391.51-3.122 1.144-6.287 1.144-3.166 0-4.896-.634-6.287-1.144-1.061-.389-1.762-.646-3.481-.646-1.718 0-2.419.257-3.48.646-1.391.51-3.121 1.144-6.287 1.144s-4.896-.634-6.287-1.144c-1.061-.389-1.763-.646-3.481-.646s-2.419.257-3.48.646c-1.391.51-3.121 1.144-6.287 1.144s-4.897-.634-6.288-1.144c-1.061-.389-1.762-.646-3.48-.646s-2.419.257-3.48.646c-1.391.51-3.122 1.144-6.287 1.144-3.166 0-4.896-.634-6.287-1.144-1.061-.389-1.762-.646-3.481-.646-2.253 0-4.079-1.826-4.079-4.078s1.826-4.078 4.079-4.078c3.166 0 4.896.634 6.287 1.144 1.061.389 1.763.646 3.481.646s2.419-.257 3.481-.646c1.391-.51 3.121-1.144 6.287-1.144s4.896.634 6.287 1.144c1.061.389 1.762.646 3.481.646 1.718 0 2.419-.257 3.48-.646 1.391-.51 3.121-1.144 6.287-1.144s4.896.634 6.287 1.144c1.061.389 1.763.646 3.481.646s2.419-.257 3.48-.646c1.391-.51 3.121-1.144 6.287-1.144s4.896.634 6.287 1.144c1.061.389 1.762.646 3.481.646 1.718 0 2.419-.257 3.481-.646 1.391-.51 3.121-1.144 6.287-1.144s4.897.634 6.288 1.144c1.062.389 1.763.646 3.481.646 1.719 0 2.42-.257 3.482-.646 1.391-.51 3.122-1.144 6.288-1.144 2.253 0 4.078 1.826 4.078 4.078s-1.826 4.078-4.078 4.078c-1.719 0-2.42.257-3.482.646-1.392.51-3.123 1.144-6.289 1.144z" fill="#edc79d"/></g></g><g><g><path d="m256.044 303.705c-3.166 0-4.897-.634-6.288-1.144-1.061-.389-1.763-.646-3.481-.646s-2.419.257-3.48.646c-1.391.51-3.122 1.144-6.288 1.144s-4.897-.634-6.287-1.144c-1.061-.389-1.762-.646-3.48-.646s-2.418.257-3.479.646c-1.391.51-3.122 1.144-6.288 1.144s-4.897-.634-6.288-1.144c-1.061-.389-1.762-.646-3.48-.646s-2.419.257-3.48.646c-1.391.51-3.121 1.144-6.287 1.144s-4.897-.634-6.288-1.144c-1.061-.389-1.762-.646-3.48-.646s-2.419.257-3.48.646c-1.391.51-3.122 1.144-6.288 1.144s-4.897-.634-6.288-1.144c-1.061-.389-1.762-.646-3.48-.646-2.253 0-4.079-1.826-4.079-4.078 0-2.253 1.826-4.079 4.079-4.079 3.166 0 4.897.635 6.288 1.144 1.061.389 1.762.646 3.48.646s2.419-.257 3.48-.646c1.391-.51 3.122-1.144 6.287-1.144 3.166 0 4.897.635 6.287 1.144 1.061.389 1.762.646 3.481.646 1.718 0 2.418-.257 3.479-.646 1.391-.51 3.122-1.144 6.287-1.144 3.166 0 4.897.635 6.288 1.144 1.061.389 1.762.646 3.48.646s2.419-.257 3.48-.646c1.391-.51 3.121-1.144 6.287-1.144s4.897.635 6.288 1.144c1.061.389 1.762.646 3.48.646s2.419-.257 3.48-.646c1.391-.51 3.122-1.144 6.288-1.144s4.897.635 6.288 1.144c1.061.389 1.762.646 3.481.646s2.42-.257 3.481-.646c1.391-.51 3.122-1.144 6.288-1.144 2.253 0 4.078 1.826 4.078 4.079s-1.826 4.078-4.078 4.078c-1.718 0-2.42.257-3.481.646-1.39.509-3.121 1.144-6.287 1.144z" fill="#edc79d"/></g></g><g><path d="m265.25 390.186v118.623c22.343-.83 43.923-1.634 64.348-8.059v-110.341h-62.818c-.531 0-1.044-.08-1.53-.223z" fill="#ffb332"/><path d="m303.544 420.947c0-6.6 5.4-12 12-12h14.054v-18.539h-62.818c-.532 0-1.044-.08-1.53-.223v118.623c13.052-.485 25.841-1.994 38.294-4.44z" fill="#fc9f24"/></g><path d="m359.413 390.409v98.741c23.771-11.085 45.467-25.867 64.348-43.615v-55.349c-.486.143-.999.223-1.53.223z" fill="#ffb332"/><path d="m423.761 408.947v-18.762c-.486.143-.999.223-1.53.223h-62.818v18.539z" fill="#fc9f24"/><path d="m328.598 501.062c10.956-3.394 21.576-7.548 31.814-12.379v-98.275h-31.814z" fill="#6ec17d"/><path d="m328.598 390.409h31.815v18.539h-31.815z" fill="#63af7d"/><path d="m303.146 361.865c-2.989 0-5.412 2.423-5.412 5.412v18.561c0 2.989 2.423 5.412 5.412 5.412h25.161v-29.385z" fill="#ffdd40"/><path d="m298.734 385.838v-18.561c0-2.989 2.423-5.412 5.412-5.412h-37.366c-2.989 0-5.412 2.423-5.412 5.412v18.561c0 2.989 2.423 5.412 5.412 5.412h37.365c-2.988 0-5.411-2.423-5.411-5.412z" fill="#ffb332"/><g><path d="m422.23 361.865h-61.526v29.385h61.526c2.989 0 5.412-2.423 5.412-5.412v-18.561c0-2.989-2.423-5.412-5.412-5.412z" fill="#ffdd40"/></g><path d="m427.642 385.838v-18.561c0-2.989-2.423-5.412-5.412-5.412h-22.645c-2.989 0-5.412 2.423-5.412 5.412v18.561c0 2.989 2.423 5.412 5.412 5.412h22.645c2.989 0 5.412-2.423 5.412-5.412z" fill="#fcedb1"/><g><path d="m326.827 361.865h35.356v29.385h-35.356z" fill="#8bc852"/></g><path d="m87.561 413.558v31.346c15.845 15.007 33.696 27.914 53.105 38.29v-69.452h-51.842c-.439 0-.862-.066-1.263-.184z" fill="#90d8f9"/><path d="m111.979 441.697c0-6.6 5.4-12 12-12h16.687v-15.956h-51.842c-.439 0-.862-.066-1.263-.184v31.346c7.683 7.277 15.842 14.055 24.418 20.295z" fill="#6bbef6"/><path d="m165.271 413.742v80.899c16.861 6.726 34.641 11.639 53.105 14.484v-95.568c-.401.118-.824.184-1.263.184h-51.842z" fill="#90d8f9"/><path d="m218.376 429.697v-16.14c-.401.118-.824.184-1.263.184h-51.841v15.956z" fill="#6bbef6"/><path d="m139.841 482.758c8.466 4.568 17.228 8.657 26.255 12.22v-81.236h-26.255z" fill="#ffb332"/><path d="m139.841 413.742h26.255v15.956h-26.255z" fill="#fc9f24"/><g><path d="m139.6 390.186h-50.776c-2.467 0-4.466 2-4.466 4.466v15.318c0 2.467 2 4.466 4.466 4.466h50.776z" fill="#b1e4f9"/></g><path d="m112.22 409.97v-15.318c0-2.467 1.999-4.466 4.466-4.466h-27.862c-2.467 0-4.466 2-4.466 4.466v15.318c0 2.467 2 4.466 4.466 4.466h27.862c-2.467 0-4.466-2-4.466-4.466z" fill="#90d8f9"/><g><path d="m217.112 390.186h-50.775v24.25h50.775c2.467 0 4.466-2 4.466-4.466v-15.318c.001-2.467-1.999-4.466-4.466-4.466z" fill="#b1e4f9"/></g><path d="m221.579 409.97v-15.318c0-2.467-1.999-4.466-4.466-4.466h-19.977c-2.467 0-4.466 2-4.466 4.466v15.318c0 2.467 1.999 4.466 4.466 4.466h19.977c2.466 0 4.466-2 4.466-4.466z" fill="#d3effb"/><g><path d="m138.379 390.186h29.179v24.25h-29.179z" fill="#ffdd40"/></g><path d="m203.128 444.979v61.283c16.488 3.627 33.596 5.595 51.146 5.717v-66.822h-49.93c-.423-.001-.83-.064-1.216-.178z" fill="#ff4155"/><path d="m228.701 473.341c0-6.6 5.4-12 12-12h13.573v-16.185h-49.93c-.423 0-.83-.064-1.216-.177v61.283c8.372 1.842 16.905 3.251 25.573 4.213z" fill="#e80054"/><path d="m277.971 445.156v65.852c17.652-1.569 34.77-4.995 51.146-10.108v-55.921c-.386.114-.794.177-1.216.177z" fill="#ff4155"/><path d="m329.117 461.341v-16.362c-.386.114-.794.177-1.216.177h-49.93v16.185z" fill="#e80054"/><path d="m253.479 511.968c.841.009 1.678.032 2.521.032 7.678 0 15.269-.371 22.766-1.062v-65.782h-25.287z" fill="#90d8f9"/><path d="m253.479 445.156h25.287v16.185h-25.287z" fill="#6bbef6"/><g><path d="m253.247 422.469h-48.903c-2.376 0-4.301 1.926-4.301 4.302v14.753c0 2.376 1.926 4.302 4.301 4.302h48.903z" fill="#ff7186"/></g><path d="m231.209 441.523v-14.753c0-2.376 1.926-4.302 4.301-4.302h-31.167c-2.376 0-4.302 1.926-4.302 4.302v14.753c0 2.376 1.926 4.302 4.302 4.302h31.167c-2.375 0-4.301-1.926-4.301-4.302z" fill="#ff4155"/><g><path d="m327.901 422.469h-48.903v23.356h48.903c2.376 0 4.302-1.926 4.302-4.302v-14.753c0-2.375-1.926-4.301-4.302-4.301z" fill="#ff7186"/></g><path d="m332.203 441.523v-14.753c0-2.376-1.926-4.302-4.302-4.302h-17.999c-2.376 0-4.302 1.926-4.302 4.302v14.753c0 2.376 1.926 4.302 4.302 4.302h17.999c2.376 0 4.302-1.926 4.302-4.302z" fill="#f9a0b1"/><g><path d="m252.071 422.469h28.103v23.356h-28.103z" fill="#b1e4f9"/></g><g fill="#6ec17d"><path d="m446.79 113.311c-29.785 5-73.91 19.811-73.91 63.712 0 52.29 66.869 50.982 66.869 98.954 0 43.13-18.987 84.838 36.956 97.463 15.557-32.189 24.295-68.29 24.295-106.439.001-58.206-20.309-111.658-54.21-153.69z"/><path d="m139.119 171.894c0-41.923-39.213-57.991-69.287-64.154-36.672 42.83-58.833 98.453-58.833 159.259 0 37.919 8.631 73.816 24.011 105.86 54.416-13.608 35.494-55.809 35.494-99.428 0-49.224 68.615-47.881 68.615-101.537z"/></g></g></svg>